# xmcd
#
# Track frame offsets:
#	151
#	10854
#	24779
#	37502
#	48579
#	61381
#	74256
#	89156
#	101134
#	111681
#
# Disc length: 1689 seconds
#
# Revision: 0
# Processed by: cddbd v1.4PL0 Copyright (c) Steve Scherf et al.
# Submitted via: EasyCDDAExtractor 5.0.5.1
#
DISCID=8206970a
DTITLE=Kaitlyn Milam - Dream Big
DYEAR=2002
DGENRE=Country
TTITLE0=Dream Big
TTITLE1=If Only
TTITLE2=Wild Thing In Me
TTITLE3=Good Old Fashion Romance
TTITLE4=It's Time
TTITLE5=Sorry
TTITLE6=Hold Me
TTITLE7=Somewhere Between Lovin' And Leavin'
TTITLE8=Hello Good-Bye
TTITLE9=A Ring Where A Ring Used To Be
EXTD=
EXTT0=
EXTT1=
EXTT2=
EXTT3=
EXTT4=
EXTT5=
EXTT6=
EXTT7=
EXTT8=
EXTT9=
PLAYORDER=
